<svg width="22" height="17" viewBox="0 0 22 17" fill="none" xmlns="http://www.w3.org/2000/svg">
<path d="M18.3031 1.36286C20.6855 4.8656 21.862 8.8166 21.4222 13.3651C21.4203 13.3844 21.4103 13.402 21.3945 13.4136C19.5904 14.7384 17.8424 15.5423 16.119 16.0755C16.1056 16.0796 16.0912 16.0793 16.078 16.0748C16.0647 16.0704 16.0531 16.0618 16.0449 16.0504C15.6468 15.4964 15.285 14.9124 14.9681 14.2991C14.9499 14.2629 14.9665 14.2194 15.0039 14.2052C15.5785 13.9887 16.1248 13.7293 16.6503 13.4221C16.6917 13.3978 16.6944 13.3385 16.6561 13.31C16.5446 13.2272 16.4341 13.1402 16.3284 13.0532C16.3086 13.0371 16.282 13.0339 16.2596 13.0447C12.8478 14.6202 9.11037 14.6202 5.65826 13.0447C5.63584 13.0347 5.60921 13.0381 5.58996 13.054C5.48449 13.141 5.37374 13.2272 5.26326 13.31C5.22503 13.3385 5.22819 13.3978 5.26985 13.4221C5.79537 13.7235 6.34172 13.9887 6.91549 14.2063C6.95267 14.2205 6.97033 14.2629 6.95188 14.2991C6.64179 14.9132 6.28002 15.4972 5.87447 16.0512C5.85681 16.0736 5.8278 16.0839 5.80038 16.0755C4.08513 15.5423 2.33719 14.7384 0.53308 13.4136C0.51805 13.402 0.507239 13.3836 0.505657 13.3643C0.138085 9.42993 0.887204 5.44623 3.62184 1.36207C3.62844 1.35126 3.63846 1.34282 3.65006 1.33781C4.99562 0.720268 6.43717 0.265945 7.94385 0.00648265C7.97127 0.00226375 7.99869 0.0149205 8.01293 0.0391791C8.19909 0.368781 8.41188 0.791462 8.55585 1.13688C10.144 0.894298 11.7569 0.894298 13.3783 1.13688C13.5223 0.798845 13.7277 0.368781 13.9131 0.0391791C13.9197 0.0271447 13.9299 0.0175033 13.9423 0.0116315C13.9547 0.00575969 13.9687 0.00395765 13.9822 0.00648265C15.4896 0.266736 16.9312 0.721059 18.2757 1.33781C18.2875 1.34282 18.2973 1.35126 18.3031 1.36286ZM9.36324 8.8435C9.37986 7.6804 8.53186 6.71797 7.46737 6.71797C6.41159 6.71797 5.57177 7.67196 5.57177 8.8435C5.57177 10.0148 6.42821 10.9688 7.46737 10.9688C8.52342 10.9688 9.36324 10.0148 9.36324 8.8435ZM16.3724 8.8435C16.389 7.6804 15.541 6.71797 14.4768 6.71797C13.4208 6.71797 12.5809 7.67196 12.5809 8.8435C12.5809 10.0148 13.4374 10.9688 14.4768 10.9688C15.541 10.9688 16.3724 10.0148 16.3724 8.8435Z" fill="white"/>
</svg>
