<svg width="30" height="35" viewBox="0 0 30 35" fill="none" xmlns="http://www.w3.org/2000/svg">
<g filter="url(#filter0_d_71_4389)">
<path d="M22.8752 18.0002C22.8752 15.9713 22.1199 14.1189 20.8752 12.7086C18.8752 16.0002 15.8752 17.0002 15.8752 17.0002C17.6853 14.5868 17.7173 12.2408 17.0263 10.2927C16.3429 8.36629 14.9525 6.82892 13.8752 6.00024C13.3752 8.50024 12.6334 9.27225 8.87521 13.5002C4.87522 18.0002 7.87521 24.0002 11.8752 26.0002C10.8752 23.0002 12.3752 19.5002 12.3752 19.5002C12.8752 23.0002 15.3752 25.0002 17.3752 26.0002C20.8752 24.0002 22.8752 21.7279 22.8752 18.0002Z" fill="#F2BC3D"/>
<path d="M22.8752 18.0002C22.8752 15.9713 22.1199 14.1189 20.8752 12.7086C18.8752 16.0002 15.8752 17.0002 15.8752 17.0002C17.6853 14.5868 17.7173 12.2408 17.0263 10.2927C16.3429 8.36629 14.9525 6.82892 13.8752 6.00024C13.3752 8.50024 12.6334 9.27225 8.87521 13.5002C4.87522 18.0002 7.87521 24.0002 11.8752 26.0002C10.8752 23.0002 12.3752 19.5002 12.3752 19.5002C12.8752 23.0002 15.3752 25.0002 17.3752 26.0002C20.8752 24.0002 22.8752 21.7279 22.8752 18.0002Z" stroke="#F2BC3D" stroke-width="1.25"/>
</g>
<defs>
<filter id="filter0_d_71_4389" x="0.361816" y="0.391968" width="29.1382" height="34.3421" filterUnits="userSpaceOnUse" color-interpolation-filters="sRGB">
<feFlood flood-opacity="0" result="BackgroundImageFix"/>
<feColorMatrix in="SourceAlpha" type="matrix" values="0 0 0 0 0 0 0 0 0 0 0 0 0 0 0 0 0 0 127 0" result="hardAlpha"/>
<feOffset dy="1.5"/>
<feGaussianBlur stdDeviation="3"/>
<feComposite in2="hardAlpha" operator="out"/>
<feColorMatrix type="matrix" values="0 0 0 0 0.52549 0 0 0 0 0.376471 0 0 0 0 0.0352941 0 0 0 1 0"/>
<feBlend mode="normal" in2="BackgroundImageFix" result="effect1_dropShadow_71_4389"/>
<feBlend mode="normal" in="SourceGraphic" in2="effect1_dropShadow_71_4389" result="shape"/>
</filter>
</defs>
</svg>
