<svg width="25" height="24" viewBox="0 0 25 24" fill="none" xmlns="http://www.w3.org/2000/svg">
<path d="M20.6 15.3C21.1951 14.1219 21.5034 12.8199 21.5 11.5V11C21.385 8.91568 20.5052 6.94699 19.0291 5.47089C17.553 3.99479 15.5843 3.11502 13.5 3.00003H13C11.6801 2.99659 10.3781 3.30496 9.2 3.90003C7.78825 4.6056 6.60083 5.69028 5.77072 7.03258C4.94061 8.37488 4.50061 9.92179 4.5 11.5C4.49656 12.8199 4.80493 14.1219 5.4 15.3L3.5 21L9.2 19.1C9.8043 19.4053 10.4412 19.6351 11.0964 19.786C11.7185 19.9294 12.3571 20.0017 13 20C14.5782 19.9994 16.1251 19.5594 17.4674 18.7293C18.8098 17.8992 19.8944 16.7118 20.6 15.3Z" stroke="#504C57" stroke-width="1.5" stroke-linecap="round"/>
<path d="M8.5 8.5H17.5M8.5 11.5H17.5" stroke="#504C57" stroke-width="1.25"/>
<path d="M8.5 14.5H13.5" stroke="#504C57" stroke-width="1.25"/>
</svg>
