<svg width="25" height="24" viewBox="0 0 25 24" fill="none" xmlns="http://www.w3.org/2000/svg">
<circle cx="12.5" cy="12" r="10.75" stroke="#3C3941" stroke-width="1.5"/>
<g opacity="0.3">
<g clip-path="url(#clip0_71_4276)">
<path d="M3.5 12C3.5 7.02944 7.52944 3 12.5 3V3C17.4706 3 21.5 7.02944 21.5 12V12C21.5 16.9706 17.4706 21 12.5 21V21C7.52944 21 3.5 16.9706 3.5 12V12Z" fill="#E2193A"/>
<rect x="2.9375" y="15.2344" width="19.125" height="5.76562" fill="#E0AB8B"/>
<path d="M18.2656 6.23438H15.1719L16.5389 9.75L18.2656 6.23438Z" fill="#F1C92B"/>
<g style="mix-blend-mode:overlay" opacity="0.7">
<path fill-rule="evenodd" clip-rule="evenodd" d="M18.1483 6.23438L15.8193 7.85156L15.893 8.08901L16.5388 9.75L18.2656 6.23438H18.1483Z" fill="black"/>
</g>
<path d="M6.73438 6.23438H9.82812L8.46112 9.75L6.73438 6.23438Z" fill="#F1C92B"/>
<g style="mix-blend-mode:overlay" opacity="0.7">
<path fill-rule="evenodd" clip-rule="evenodd" d="M6.85169 6.23438L9.18066 7.85156L9.10704 8.08901L8.46118 9.75L6.73444 6.23438H6.85169Z" fill="black"/>
</g>
<path fill-rule="evenodd" clip-rule="evenodd" d="M12.5 5.67188H9.87694L8.31728 7.78125L7.53745 12.7031L7.96281 13.6172C7.37203 14.2031 5.39646 15.2344 3.92188 15.2344C3.92188 15.2344 6.61583 16.0078 7.96281 17.5547C9.04039 18.7922 9.66426 19.2891 10.7986 19.6641C11.9329 20.0391 12.5 20.0156 12.5 20.0156C12.5 20.0156 13.0671 20.0391 14.2014 19.6641C15.3357 19.2891 15.9596 18.7922 17.0372 17.5547C18.3842 16.0078 21.0781 15.2344 21.0781 15.2344C19.6035 15.2344 17.628 14.2031 17.0372 13.6172L17.4626 12.7031L16.6827 7.78125L15.1231 5.67188H12.5Z" fill="#E8A60F"/>
<path fill-rule="evenodd" clip-rule="evenodd" d="M12.5 5.67188H9.87694L8.31728 7.78125L7.53745 12.7031L7.96281 13.6172C7.37203 14.2031 5.39646 15.2344 3.92188 15.2344C3.92188 15.2344 6.61583 15.3047 7.96281 16.8516C9.04039 18.0891 9.66426 18.5859 10.7986 18.9609C11.9329 19.3359 12.5 19.3125 12.5 19.3125C12.5 19.3125 13.0671 19.3359 14.2014 18.9609C15.3357 18.5859 15.9596 18.0891 17.0372 16.8516C18.3842 15.3047 21.0781 15.2344 21.0781 15.2344C19.6035 15.2344 17.628 14.2031 17.0372 13.6172L17.4626 12.7031L16.6827 7.78125L15.1231 5.67188H12.5Z" fill="#F1C92B"/>
<path fill-rule="evenodd" clip-rule="evenodd" d="M12.5 5.67188H9.87694L8.31728 7.78125L7.53745 12.7031L7.96281 13.6172C7.37203 14.2031 5.39646 15.2344 3.92188 15.2344C3.92188 15.2344 6.61583 15.3047 7.96281 16.8516C9.04039 18.0891 9.66426 18.5859 10.7986 18.9609C11.9329 19.3359 12.5 19.3125 12.5 19.3125C12.5 19.3125 13.0671 19.3359 14.2014 18.9609C15.3357 18.5859 15.9596 18.0891 17.0372 16.8516C18.3842 15.3047 21.0781 15.2344 21.0781 15.2344C19.6035 15.2344 17.628 14.2031 17.0372 13.6172L17.4626 12.7031L16.6827 7.78125L15.1231 5.67188H12.5Z" fill="url(#paint0_linear_71_4276)" fill-opacity="0.1"/>
<g style="mix-blend-mode:overlay" opacity="0.36">
<path fill-rule="evenodd" clip-rule="evenodd" d="M12.5 19.3125C12.5 19.3125 13.0671 19.3359 14.2014 18.9609C15.3357 18.5859 15.9596 18.0891 17.0372 16.8516C18.3842 15.3047 21.0781 15.2344 21.0781 15.2344C19.6035 15.2344 17.628 14.2031 17.0372 13.6172L17.4626 12.7031L16.6827 7.78125L15.1231 5.67188H12.5V19.3125Z" fill="black"/>
</g>
<g style="mix-blend-mode:overlay" opacity="0.48">
<path fill-rule="evenodd" clip-rule="evenodd" d="M11.012 7.18848C11.011 7.14498 10.9644 7.10176 10.8719 7.0158C10.8599 7.00472 10.8484 6.99387 10.8371 6.98328C10.6721 6.82851 10.568 6.73081 10.3177 6.8471C10.0504 6.97135 9.88365 7.21563 10.196 7.29284C10.268 7.31064 10.3341 7.34014 10.3976 7.36853C10.5547 7.43867 10.6967 7.50209 10.8763 7.36584C10.9677 7.27676 11.0131 7.23248 11.012 7.18848ZM11.6166 7.70746C11.5054 7.87031 11.621 8.0575 11.7066 8.11038C11.9484 8.20187 12.1257 7.67469 12.0807 7.47323C12.0357 7.27177 11.6933 7.06025 11.5671 7.15595C11.4762 7.22493 11.4953 7.27166 11.5243 7.34267C11.5355 7.37018 11.5482 7.40134 11.5566 7.43884C11.568 7.49014 11.5957 7.51768 11.6194 7.54121C11.6576 7.57927 11.6853 7.60681 11.6166 7.70746ZM11.8416 8.71476C12.0351 8.78795 12.1584 9.14202 11.9467 9.18484C11.7349 9.22766 11.4409 9.03444 11.292 8.89611C11.1058 8.72319 11.1463 8.57461 11.3581 8.53179C11.489 8.50532 11.5504 8.54652 11.6354 8.60344C11.6878 8.63862 11.7493 8.67982 11.8416 8.71476ZM10.8251 7.7973C11.0177 7.70783 11.0505 7.75984 11.0858 7.81571C11.0995 7.83742 11.1135 7.85972 11.1375 7.87452C11.171 7.91453 11.23 8.02426 11.1975 8.14313C11.1784 8.21322 11.1111 8.21494 11.0189 8.2173C10.9156 8.21993 10.7811 8.22337 10.6478 8.32447C10.3955 8.51587 10.2799 8.32869 10.391 8.16583C10.5022 8.00298 10.5578 7.92155 10.8251 7.7973Z" fill="black"/>
<path fill-rule="evenodd" clip-rule="evenodd" d="M13.988 7.18848C13.989 7.14498 14.0356 7.10176 14.1281 7.0158C14.1401 7.00472 14.1516 6.99387 14.1629 6.98328C14.3279 6.82851 14.432 6.73081 14.6823 6.8471C14.9496 6.97135 15.1163 7.21563 14.804 7.29284C14.732 7.31064 14.6659 7.34014 14.6024 7.36853C14.4453 7.43867 14.3033 7.50209 14.1237 7.36584C14.0323 7.27676 13.9869 7.23248 13.988 7.18848ZM13.3834 7.70746C13.4946 7.87032 13.379 8.0575 13.2934 8.11038C13.0516 8.20188 12.8743 7.6747 12.9193 7.47324C12.9643 7.27177 13.3067 7.06026 13.4329 7.15596C13.5238 7.22493 13.5047 7.27167 13.4757 7.34268L13.4757 7.34268L13.4757 7.34268C13.4645 7.37019 13.4518 7.40134 13.4434 7.43885C13.432 7.49015 13.4043 7.51769 13.3806 7.54121C13.3424 7.57927 13.3147 7.60681 13.3834 7.70746ZM13.1584 8.71477C12.9649 8.78795 12.8416 9.14202 13.0533 9.18484C13.2651 9.22766 13.5591 9.03444 13.708 8.89611C13.8942 8.7232 13.8537 8.57462 13.6419 8.53179C13.511 8.50533 13.4496 8.54652 13.3646 8.60345C13.3122 8.63863 13.2507 8.67982 13.1584 8.71477ZM14.1749 7.79731C13.9823 7.70783 13.9495 7.75985 13.9142 7.81572C13.9005 7.83743 13.8865 7.85972 13.8625 7.87452C13.829 7.91453 13.77 8.02426 13.8025 8.14313C13.8216 8.21323 13.8889 8.21495 13.9811 8.2173C14.0844 8.21994 14.2189 8.22337 14.3522 8.32448C14.6045 8.51588 14.7201 8.32869 14.609 8.16584C14.4978 8.00298 14.4422 7.92156 14.1749 7.79731Z" fill="black"/>
</g>
<path fill-rule="evenodd" clip-rule="evenodd" d="M12.5 13.3296L11.3388 13.6072L10.1094 12.8438C10.2004 13.1908 10.4509 14.0653 10.7241 14.7871C10.7409 14.8314 10.757 14.8743 10.7726 14.9158C11.0757 15.7202 11.1868 16.0152 11.817 16.1753C11.9349 16.2052 12.2264 16.2237 12.5272 16.2176C12.799 16.2237 13.0651 16.2052 13.183 16.1753C13.8132 16.0152 13.9243 15.7202 14.2274 14.9158C14.243 14.8743 14.2591 14.8314 14.2759 14.7871C14.5491 14.0653 14.7996 13.1908 14.8906 12.8438L13.6612 13.6072L12.5 13.3296C12.5 13.3296 12.5 13.3296 12.5 13.3296C12.5 13.3296 12.5 13.3296 12.5 13.3296Z" fill="#833646"/>
<path fill-rule="evenodd" clip-rule="evenodd" d="M12.5 13.3296L11.3388 13.6072L10.1094 12.8438C10.2004 13.1908 10.4509 14.0653 10.7241 14.7871C10.7409 14.8314 10.757 14.8743 10.7726 14.9158C11.0757 15.7202 11.1868 16.0152 11.817 16.1753C11.9349 16.2052 12.2264 16.2237 12.5272 16.2176C12.799 16.2237 13.0651 16.2052 13.183 16.1753C13.8132 16.0152 13.9243 15.7202 14.2274 14.9158C14.243 14.8743 14.2591 14.8314 14.2759 14.7871C14.5491 14.0653 14.7996 13.1908 14.8906 12.8438L13.6612 13.6072L12.5 13.3296C12.5 13.3296 12.5 13.3296 12.5 13.3296C12.5 13.3296 12.5 13.3296 12.5 13.3296Z" fill="url(#paint1_linear_71_4276)" fill-opacity="0.4"/>
<path fill-rule="evenodd" clip-rule="evenodd" d="M11.781 16.1658C11.5637 16.1069 11.4105 16.0299 11.2892 15.9181C11.3484 15.6559 11.4403 15.375 11.547 15.375C11.6712 15.375 11.7469 15.8248 11.781 16.1658ZM13.7111 15.9181C13.5898 16.0299 13.4366 16.1069 13.2193 16.1658C13.2535 15.8248 13.3291 15.375 13.4533 15.375C13.56 15.375 13.6519 15.6559 13.7111 15.9181ZM13.5199 13.5734L13.6613 13.6072L14.1912 13.2781C14.0585 13.8508 13.8852 14.4609 13.7658 14.4609C13.6442 14.4609 13.564 13.9984 13.5199 13.5734ZM11.4805 13.5734C11.4364 13.9984 11.3561 14.4609 11.2345 14.4609C11.1151 14.4609 10.9418 13.8508 10.8091 13.2781L11.339 13.6072L11.4805 13.5734Z" fill="white"/>
<path fill-rule="evenodd" clip-rule="evenodd" d="M11.2344 12.0703L11.5008 11.7188H12.5H13.4992L13.7656 12.0703L12.5 12.7734L11.2344 12.0703Z" fill="#C35C57"/>
<path d="M11.5156 17.2031H13.625C13.4844 17.4375 13.0766 17.9062 12.5703 17.9062C12.0641 17.9062 11.6094 17.4375 11.5156 17.2031Z" fill="#E8A60F"/>
<path d="M10.8125 10.0312L11.3047 11.0859L9.33594 10.5938L8.77344 10.0312L9.33594 9.46875L10.8125 10.0312Z" fill="#121212"/>
<mask id="mask0_71_4276" style="mask-type:alpha" maskUnits="userSpaceOnUse" x="8" y="9" width="4" height="3">
<path d="M10.8125 10.0312L11.3047 11.0859L9.33594 10.5938L8.77344 10.0312L9.33594 9.46875L10.8125 10.0312Z" fill="black"/>
</mask>
<g mask="url(#mask0_71_4276)">
<circle cx="10.25" cy="10.0312" r="0.84375" fill="#F4E943"/>
<circle cx="10.25" cy="10.0312" r="0.421875" fill="#121212"/>
</g>
<path d="M14.1875 10.0312L13.6953 11.0859L15.6641 10.5938L16.2266 10.0312L15.6641 9.46875L14.1875 10.0312Z" fill="#121212"/>
<mask id="mask1_71_4276" style="mask-type:alpha" maskUnits="userSpaceOnUse" x="13" y="9" width="4" height="3">
<path d="M14.1875 10.0312L13.6953 11.0859L15.6641 10.5938L16.2266 10.0312L15.6641 9.46875L14.1875 10.0312Z" fill="black"/>
</mask>
<g mask="url(#mask1_71_4276)">
<circle r="0.84375" transform="matrix(-1 0 0 1 14.75 10.0312)" fill="#F4E943"/>
<circle r="0.421875" transform="matrix(-1 0 0 1 14.75 10.0312)" fill="#121212"/>
</g>
</g>
</g>
<defs>
<linearGradient id="paint0_linear_71_4276" x1="12.5" y1="5.67187" x2="12.5" y2="19.3128" gradientUnits="userSpaceOnUse">
<stop stop-color="white"/>
<stop offset="1" stop-color="white" stop-opacity="0"/>
</linearGradient>
<linearGradient id="paint1_linear_71_4276" x1="12.5" y1="12.8438" x2="12.5" y2="16.2188" gradientUnits="userSpaceOnUse">
<stop/>
<stop offset="1" stop-opacity="0"/>
</linearGradient>
<clipPath id="clip0_71_4276">
<path d="M3.5 12C3.5 7.02944 7.52944 3 12.5 3V3C17.4706 3 21.5 7.02944 21.5 12V12C21.5 16.9706 17.4706 21 12.5 21V21C7.52944 21 3.5 16.9706 3.5 12V12Z" fill="white"/>
</clipPath>
</defs>
</svg>
